<?xml version="1.0" encoding="utf-8"?>
<!-- Uploaded to: SVG Repo, www.svgrepo.com, Generator: SVG Repo Mixer Tools -->
<svg fill="#000000" width="800px" height="800px" viewBox="0 0 32 32" version="1.1" xmlns="http://www.w3.org/2000/svg">
<title>code-simple</title>
<path d="M3.711 15.943l6.229-7.121c0.192-0.219 0.309-0.507 0.309-0.823 0-0.69-0.56-1.25-1.25-1.25-0.374 0-0.71 0.165-0.939 0.425l-0.001 0.001-7 8.001c-0.192 0.219-0.31 0.507-0.31 0.823 0 0.345 0.14 0.658 0.366 0.884v0l7 7.001c0.226 0.226 0.539 0.366 0.884 0.366 0.691 0 1.251-0.56 1.251-1.251 0-0.346-0.14-0.658-0.367-0.885v0zM30.941 15.177l-7-8c-0.23-0.263-0.567-0.427-0.941-0.427-0.691 0-1.251 0.56-1.251 1.251 0 0.316 0.117 0.605 0.31 0.825l-0.001-0.001 6.23 7.12-6.174 6.172c-0.226 0.226-0.366 0.539-0.366 0.884 0 0.691 0.56 1.251 1.251 1.251 0.345 0 0.658-0.14 0.884-0.366l7-7.001c0.226-0.226 0.366-0.539 0.366-0.884 0-0.316-0.117-0.605-0.311-0.825l0.001 0.001z"></path>
</svg>