<?xml version="1.0" ?><!-- Uploaded to: SVG Repo, www.svgrepo.com, Generator: SVG Repo Mixer Tools -->
<svg width="800px" height="800px" viewBox="0 0 24 24" fill="none" xmlns="http://www.w3.org/2000/svg"><path clip-rule="evenodd" d="M9 6C9 5.44772 9.44772 5 10 5C10.5523 5 11 5.44772 11 6V8.8L3.01391 15.1889C2.37306 15.7016 2 16.4777 2 17.2984C2 18.7905 3.20953 20 4.70156 20H19.2984C20.7905 20 22 18.7905 22 17.2984C22 16.4777 21.6269 15.7016 20.9861 15.1889L13 8.8V6C13 4.34315 11.6569 3 10 3C8.34315 3 7 4.34315 7 6V7C7 7.55228 7.44772 8 8 8C8.55228 8 9 7.55228 9 7V6ZM4.2633 16.7506L12 10.5612L19.7367 16.7506C19.9031 16.8837 20 17.0853 20 17.2984C20 17.6859 19.6859 18 19.2984 18H4.70156C4.3141 18 4 17.6859 4 17.2984C4 17.0853 4.09688 16.8837 4.2633 16.7506Z" fill="#000000" fill-rule="evenodd"/></svg>